<mxfile host="app.diagrams.net" modified="2023-08-18T09:27:32.141Z" agent="Mozilla/5.0 (Macintosh; Intel Mac OS X 10_15_7) AppleWebKit/537.36 (KHTML, like Gecko) Chrome/114.0.0.0 Safari/537.36" etag="tf16ujhoOFVCsTnDKUQB" version="21.6.8" type="github">
  <diagram name="Page-1" id="WoqhhD6lpDFLgfi7OJ99">
    <mxGraphModel dx="1306" dy="712" grid="1" gridSize="10" guides="1" tooltips="1" connect="1" arrows="1" fold="1" page="1" pageScale="1" pageWidth="827" pageHeight="1169" math="0" shadow="0">
      <root>
        <mxCell id="0" />
        <mxCell id="1" parent="0" />
        <mxCell id="0i_TROUVxeNVEFwLMdWt-4" style="edgeStyle=orthogonalEdgeStyle;rounded=0;orthogonalLoop=1;jettySize=auto;html=1;entryX=0;entryY=0.5;entryDx=0;entryDy=0;curved=1;" edge="1" parent="1" source="0i_TROUVxeNVEFwLMdWt-1" target="0i_TROUVxeNVEFwLMdWt-2">
          <mxGeometry relative="1" as="geometry" />
        </mxCell>
        <mxCell id="0i_TROUVxeNVEFwLMdWt-7" value="kubectl" style="edgeLabel;html=1;align=center;verticalAlign=middle;resizable=0;points=[];" vertex="1" connectable="0" parent="0i_TROUVxeNVEFwLMdWt-4">
          <mxGeometry x="-0.0259" relative="1" as="geometry">
            <mxPoint y="1" as="offset" />
          </mxGeometry>
        </mxCell>
        <mxCell id="0i_TROUVxeNVEFwLMdWt-1" value="K8 objects&lt;br&gt;desired state ( by yaml)" style="rounded=0;whiteSpace=wrap;html=1;fillColor=none;" vertex="1" parent="1">
          <mxGeometry x="50" y="130" width="120" height="60" as="geometry" />
        </mxCell>
        <mxCell id="0i_TROUVxeNVEFwLMdWt-2" value="Persisted into K8 system" style="rounded=0;whiteSpace=wrap;html=1;fillColor=none;" vertex="1" parent="1">
          <mxGeometry x="340" y="30" width="120" height="60" as="geometry" />
        </mxCell>
      </root>
    </mxGraphModel>
  </diagram>
</mxfile>
